Coordinates
version=1
nRows=22
nColumns=24
inDegrees=yes

Units are S.I. units (second, meters, Newtons, ...)
Angles are in degrees.

endheader
time	pelvis_tilt	pelvis_list	pelvis_rotation	pelvis_tx	pelvis_ty	pelvis_tz	hip_flexion_r	hip_adduction_r	hip_rotation_r	knee_angle_r	ankle_angle_r	subtalar_angle_r	mtp_angle_r	hip_flexion_l	hip_adduction_l	hip_rotation_l	knee_angle_l	ankle_angle_l	subtalar_angle_l	mtp_angle_l	lumbar_extension	lumbar_bending	lumbar_rotation
      1.43000000	     24.10122716	     -1.42868150	      5.10004311	     -0.49972205	      0.84171139	     -0.03897811	    -40.92274855	      8.81883257	    -16.65457294	     -4.19100560	     32.27410118	     16.78262084	     28.35772416	     -5.33997539	     -0.03371873	    -17.29085960	     -1.91935419	     17.18473121	     15.27999826	     46.86782862	    -39.60171611	      3.71833170	     -8.70552034
      1.43500000	     24.18295524	     -1.53393077	      5.03111228	     -0.49416522	      0.84142728	     -0.03905652	    -41.09666555	      8.74879345	    -16.39422314	     -5.00936743	     32.37365937	     16.85395273	     28.45239654	     -5.35733030	     -0.13312200	    -17.25373374	     -2.75958678	     16.97431587	     15.26956715	     46.87559355	    -39.65361085	      3.73487651	     -8.69026535
      1.44000000	     24.24811233	     -1.63792184	      4.97341193	     -0.48858358	      0.84116920	     -0.03911661	    -41.22544865	      8.67843451	    -16.15102775	     -5.88971594	     32.45008557	     16.94908325	     28.62089324	     -5.33660488	     -0.24962531	    -17.16196198	     -3.69999402	     16.73378247	     15.24154069	     46.89083999	    -39.68681116	      3.74739069	     -8.68381468
      1.44500000	     24.31208645	     -1.73365011	      4.92122252	     -0.48297185	      0.84095845	     -0.03917841	    -41.32201533	      8.59642668	    -15.93378347	     -6.84403228	     32.50452857	     17.06098911	     28.87977923	     -5.31046541	     -0.36792058	    -17.01394994	     -4.69144576	     16.43871422	     15.12609528	     46.90867368	    -39.71577571	      3.75116828	     -8.67841274
      1.45000000	     24.40146671	     -1.78586540	      4.91063375	     -0.47736706	      0.84082939	     -0.03933081	    -41.42420283	      8.49802567	    -15.83036953	     -7.83257675	     32.38539442	     17.13166147	     30.50052018	     -5.33083683	     -0.43610558	    -16.66045185	     -5.65246473	     16.00581534	     14.67180892	     47.12489861	    -39.77644110	      3.74180406	     -8.73114981
      1.45500000	     24.44955673	     -1.87435467	      4.83873626	     -0.47171169	      0.84073690	     -0.03934974	    -41.43106482	      8.38185714	    -15.61445575	     -8.95368368	     32.38129455	     17.24672618	     30.68963935	     -5.28071538	     -0.56612267	    -16.47474349	     -6.71311446	     15.62107000	     14.50567631	     47.14642247	    -39.79025069	      3.72026293	     -8.70458061
      1.46000000	     24.48892038	     -1.93665086	      4.80291382	     -0.46607758	      0.84067278	     -0.03944955	    -41.37388828	      8.25242044	    -15.51423461	    -10.19809801	     32.38308118	     17.40218508	     31.01819563	     -5.21532437	     -0.66910288	    -16.14170559	     -7.78837097	     15.20874310	     14.10505314	     47.16735726	    -39.80008651	      3.69642567	     -8.71583222
      1.46500000	     24.52359589	     -1.97053662	      4.87838660	     -0.46047025	      0.84063474	     -0.03975069	    -41.29173477	      8.16036868	    -15.58400343	    -11.46375626	     32.28127297	     17.64618458	     31.83403350	     -5.12862186	     -0.74311229	    -15.52742477	     -8.87721331	     14.72642521	     13.37811441	     47.26882454	    -39.80442492	      3.71830625	     -8.83017911
      1.47000000	     24.61630190	     -1.93711873	      4.82621253	     -0.45471942	      0.84080392	     -0.03990048	    -41.23517025	      7.92383439	    -15.61149763	    -12.83752037	     31.95135850	     17.64040784	     34.20575983	     -5.20938849	     -0.72617441	    -15.08689992	     -9.79263446	     14.11912513	     12.57476239	     47.78419091	    -39.86607770	      3.60219009	     -8.88618724
      1.47500000	     24.61227620	     -1.99466019	      4.84363222	     -0.44903924	      0.84085344	     -0.04008901	    -40.99664536	      7.79470823	    -15.64562555	    -14.36696267	     31.80410014	     17.81930526	     34.62406513	     -5.06182132	     -0.85335427	    -14.64622436	    -10.98576734	     13.82328826	     12.15542486	     47.85236906	    -39.82547907	      3.60370380	     -8.91805217
      1.48000000	     24.65278627	     -1.96707715	      4.83391519	     -0.44327399	      0.84105554	     -0.04030502	    -40.77782479	      7.56332824	    -15.76865205	    -15.95913405	     31.36886778	     17.87293894	     37.04034663	     -5.05725465	     -0.85891280	    -14.14685754	    -11.98807491	     13.37629128	     11.36578901	     48.27075035	    -39.83217871	      3.51538971	     -8.99204861
      1.48500000	     24.64078382	     -1.95018315	      4.87900716	     -0.43754288	      0.84119776	     -0.04063933	    -40.43053230	      7.35125479	    -15.97407371	    -17.71880250	     31.11609907	     18.02668258	     37.50106729	     -4.96130994	     -0.88050067	    -13.55095423	    -13.06969274	     13.10847791	     10.66437874	     48.24364397	    -39.78337113	      3.47660221	     -9.08779882
      1.49000000	     24.68623844	     -1.86638769	      4.86824820	     -0.43173099	      0.84151531	     -0.04094902	    -40.10913986	      7.03127643	    -16.22139584	    -19.54867352	     30.59527618	     18.04952215	     39.78408764	     -5.04275285	     -0.80136324	    -12.96953229	    -13.92484201	     12.76183319	      9.81242089	     48.28385339	    -39.79464041	      3.34710201	     -9.16289070
      1.49500000	     24.67042463	     -1.79050087	      4.90111938	     -0.42590235	      0.84176638	     -0.04131697	    -39.66931026	      6.72664783	    -16.51992173	    -21.47862001	     30.04817625	     18.07037368	     41.49340752	     -5.01538998	     -0.74308821	    -12.39417108	    -14.89480183	     12.60743380	      9.11804375	     48.23434515	    -39.73673057	      3.25011133	     -9.27960420
      1.50000000	     24.61777066	     -1.71103213	      4.97127256	     -0.42007380	      0.84198393	     -0.04176577	    -39.13598654	      6.41595186	    -16.87775874	    -23.51450795	     29.47397921	     18.17309399	     42.26139724	     -4.93778432	     -0.67939245	    -11.79787503	    -15.90079732	     12.61340487	      8.48804690	     48.15343866	    -39.64011596	      3.17494172	     -9.43356176
      1.50500000	     24.63704725	     -1.55633246	      4.94405174	     -0.41416767	      0.84238740	     -0.04212760	    -38.64205765	      5.96353559	    -17.22707429	    -25.61012294	     28.62612116	     17.96880867	     45.49010343	     -5.06724293	     -0.51072912	    -11.31627998	    -16.66832168	     12.55103076	      7.89498820	     47.86323405	    -39.61977155	      2.97986489	     -9.52966093
      1.51000000	     24.60253059	     -1.36931050	      4.98337405	     -0.40830112	      0.84272589	     -0.04267300	    -38.02914302	      5.48317895	    -17.68971858	    -27.83901318	     27.80299015	     17.82243820	     47.06920457	     -5.17457979	     -0.28028093	    -10.66107850	    -17.33573940	     12.57895297	      7.24109987	     47.57757045	    -39.54666907	      2.80387363	     -9.69893036
      1.51500000	     24.48839780	     -1.22414800	      5.02682525	     -0.40244499	      0.84296778	     -0.04321569	    -37.27509085	      5.01588787	    -18.10396258	    -30.14558819	     26.90833392	     17.75378675	     48.00085271	     -5.15449254	     -0.10227699	    -10.11046161	    -18.11575226	     12.80275677	      6.70595869	     47.42079167	    -39.38889520	      2.66620035	     -9.85118160
      1.52000000	     24.49524229	     -0.95238545	      4.98784264	     -0.39648840	      0.84344145	     -0.04368875	    -36.65199329	      4.37894550	    -18.54480654	    -32.42489285	     25.74275589	     17.25896215	     51.27113744	     -5.42344192	      0.22724792	     -9.67472331	    -18.59939965	     12.92195486	      6.30069446	     46.86830749	    -39.35824848	      2.37226992	    -10.00418503
      1.52500000	     24.37287540	     -0.72154889	      4.96993251	     -0.39061974	      0.84373073	     -0.04420606	    -35.81270654	      3.75864768	    -18.94041989	    -34.84433821	     24.75556881	     16.88299793	     51.61160008	     -5.52328442	      0.51481416	     -9.24533308	    -19.12744211	     13.14371030	      6.07262920	     46.78120848	    -39.19765081	      2.12639640	    -10.11326871
      1.53000000	     24.31305098	     -0.42803645	      4.96732593	     -0.38467124	      0.84414341	     -0.04483668	    -35.06360882	      3.07184099	    -19.39823668	    -37.14720603	     23.38543231	     16.30304753	     54.60475103	     -5.79087010	      0.89672863	     -8.77388028	    -19.45840391	     13.44125684	      5.56881231	     46.06373086	    -39.09743270	      1.84555832	    -10.32548628
      1.53500000	     24.15097214	     -0.18861396	      4.94970084	     -0.37883532	      0.84440977	     -0.04540382	    -34.13451634	      2.42139061	    -19.71243154	    -39.53262588	     22.20991584	     15.65221385	     54.97865950	     -5.92412913	      1.21116154	     -8.38921655	    -19.82206125	     13.80975593	      5.31418993	     45.90939462	    -38.89975753	      1.59864228	    -10.45313552
